<?xml version="1.0" encoding="UTF-8" standalone="no"?>
<!-- Created with Inkscape (http://www.inkscape.org/) -->

<svg
   width="47.342888mm"
   height="19.825403mm"
   viewBox="0 0 47.342888 19.825403"
   version="1.1"
   id="svg1"
   inkscape:export-filename="wpdLOgo.svg"
   inkscape:export-xdpi="96"
   inkscape:export-ydpi="96"
   xmlns:inkscape="http://www.inkscape.org/namespaces/inkscape"
   xmlns:sodipodi="http://sodipodi.sourceforge.net/DTD/sodipodi-0.dtd"
   xmlns="http://www.w3.org/2000/svg"
   xmlns:svg="http://www.w3.org/2000/svg">
  <sodipodi:namedview
     id="namedview1"
     pagecolor="#ffffff"
     bordercolor="#000000"
     borderopacity="0.25"
     inkscape:showpageshadow="2"
     inkscape:pageopacity="0.0"
     inkscape:pagecheckerboard="0"
     inkscape:deskcolor="#d1d1d1"
     inkscape:document-units="mm" />
  <defs
     id="defs1" />
  <g
     inkscape:label="Warstwa 1"
     inkscape:groupmode="layer"
     id="layer1"
     transform="translate(-4.0000001,-4)">
    <path
       d="M 22.947183,4.7638936 18.96426,19.786712 H 16.669192 L 13.447863,7.3164611 10.298575,19.786712 H 8.0549649 L 4,4.7638936 H 6.0892329 L 9.3105627,17.254323 12.480434,4.7638936 h 2.068649 L 17.74983,17.375393 20.950576,4.7638936 Z"
       id="text4"
       style="font-size:20.8691px;stroke-width:1.739"
       inkscape:label="text4"
       aria-label="W" />
    <path
       d="M 26.275958,4.6749502 22.330899,19.674962 H 20.057646 L 16.86694,7.2236426 13.74759,19.674962 H 11.525308 L 7.5088908,4.6749502 H 9.5782624 L 12.76897,17.146418 15.908708,4.6749502 h 2.048985 L 21.128012,17.267304 24.298331,4.6749502 Z m 12.844381,9.2377508 q 0,1.370049 -0.397564,2.508397 -0.397565,1.128275 -1.121335,1.914038 -0.672801,0.745468 -1.590257,1.158497 -0.907262,0.402955 -1.926657,0.402955 -0.886874,0 -1.610645,-0.191403 -0.713577,-0.191404 -1.457735,-0.59436 v 4.714577 H 29.099683 V 8.4224347 h 1.916463 v 1.1786444 q 0.764547,-0.6346547 1.712585,-1.0577578 0.958231,-0.4331769 2.03879,-0.4331769 2.059178,0 3.200901,1.5413037 1.151917,1.5312309 1.151917,4.2612529 z m -1.977627,0.05037 q 0,-2.034925 -0.703383,-3.042313 -0.703383,-1.0073889 -2.161118,-1.0073889 -0.82571,0 -1.661614,0.3525859 -0.835904,0.352586 -1.600451,0.926798 v 6.376768 q 0.815517,0.362659 1.396572,0.49362 0.591249,0.130961 1.335408,0.130961 1.60045,0 2.497518,-1.067832 0.897068,-1.067831 0.897068,-3.163199 z m 14.200177,5.711891 h -1.916464 v -1.178644 q -0.82571,0.705172 -1.722778,1.098053 -0.897068,0.392882 -1.947045,0.392882 -2.03879,0 -3.241677,-1.551378 -1.192692,-1.551378 -1.192692,-4.301548 0,-1.430492 0.407757,-2.548693 0.417953,-1.118201 1.121336,-1.9039639 0.693188,-0.7656151 1.610644,-1.1685704 0.92765,-0.4029553 1.916463,-0.4029553 0.897068,0 1.590258,0.1914038 0.693188,0.1813298 1.457734,0.5742113 V 4 h 1.916464 z m -1.916464,-2.770317 v -6.45736 q -0.77474,-0.342512 -1.386377,-0.4734719 -0.611638,-0.130961 -1.335408,-0.130961 -1.610644,0 -2.507712,1.1081269 -0.897069,1.108128 -0.897069,3.143052 0,2.004702 0.69319,3.052387 0.693188,1.03761 2.222281,1.03761 0.815516,0 1.65142,-0.352586 0.835905,-0.36266 1.559675,-0.926797 z"
       id="text3"
       style="font-size:20.7539px;stroke-width:1.729"
       aria-label="Wpd" />
  </g>
</svg>
